<svg width="62" height="28" viewBox="0 0 62 28" fill="none" xmlns="http://www.w3.org/2000/svg">
<path d="M6.30601 5.90844C4.3807 5.77756 2.63731 6.57353 1.47341 7.89219V0.368763C1.47341 0.164626 1.30878 0 1.10547 0H0.368763C0.164626 0 0 0.164626 0 0.368763V11.9165C0 11.9782 0.00246939 12.026 0.00740818 12.0679C0.153102 15.1942 2.7328 17.6842 5.89527 17.6842C9.23224 17.6842 11.9214 14.911 11.7848 11.5436C11.6629 8.56057 9.28492 6.11093 6.30601 5.90844ZM5.89444 16.2099C3.45304 16.2099 1.47341 14.2303 1.47341 11.7889C1.47341 9.34748 3.45304 7.36785 5.89444 7.36785C8.33585 7.36785 10.3155 9.34748 10.3155 11.7889C10.3155 14.2303 8.33585 16.2099 5.89444 16.2099Z" fill="#676767"/>
<path d="M19.2454 5.8949C18.6133 5.8949 17.9218 5.94099 17.0592 6.33445C16.1957 6.72791 15.5323 7.3683 15.1051 7.85971V6.50895C15.1051 6.30564 14.9405 6.14019 14.7363 6.14019H13.9996C13.7963 6.14019 13.6309 6.30482 13.6309 6.50895V17.3158C13.6309 17.5192 13.7955 17.6846 13.9996 17.6846H14.7363C14.9396 17.6846 15.1051 17.52 15.1051 17.3158V12.047C15.1051 9.1759 16.4287 7.60207 19.3508 7.27776C19.573 7.26047 19.741 7.17651 19.8603 7.03082C19.9797 6.88512 20.0307 6.71144 20.0142 6.52377C19.9978 6.11385 19.741 5.8949 19.2454 5.8949Z" fill="#676767"/>
<path d="M30.9003 5.8949C29.3281 5.8949 27.9025 6.6316 26.8942 7.85971V6.50895C26.8942 6.30564 26.7295 6.14019 26.5254 6.14019H25.7887C25.5854 6.14019 25.4199 6.30482 25.4199 6.50895V17.3158C25.4199 17.5192 25.5845 17.6846 25.7887 17.6846H26.5254C26.7287 17.6846 26.8942 17.52 26.8942 17.3158V11.8807C26.8942 10.4114 27.2728 9.32324 28.0169 8.56349C28.7602 7.80292 29.6961 7.29998 30.8246 7.29998C31.7819 7.29998 32.512 7.39135 33.0158 8.06714C33.5195 8.74211 33.7714 9.78172 33.7714 10.995V17.3167C33.7714 17.52 33.936 17.6854 34.1402 17.6854H34.8769C35.0802 17.6854 35.2456 17.5208 35.2456 17.3167V10.7127C35.2456 9.17508 34.8826 8.00541 34.1311 7.15923C33.378 6.31222 32.3013 5.8949 30.9003 5.8949Z" fill="#676767"/>
<path d="M22.8418 6.14099H22.1051C21.9018 6.14099 21.7363 6.30562 21.7363 6.50975V17.3166C21.7363 17.52 21.901 17.6854 22.1051 17.6854H22.8418C23.0451 17.6854 23.2106 17.5208 23.2106 17.3166V6.50893C23.2097 6.30562 23.0451 6.14099 22.8418 6.14099Z" fill="#676767"/>
<path d="M55.998 5.8949C52.7425 5.8949 50.1035 8.53386 50.1035 11.7893C50.1035 15.0448 52.7425 17.6838 55.998 17.6838C59.2534 17.6838 61.8924 15.0448 61.8924 11.7893C61.8924 8.53386 59.2534 5.8949 55.998 5.8949ZM55.998 16.2104C53.5566 16.2104 51.5769 14.2307 51.5769 11.7893C51.5769 9.34793 53.5566 7.3683 55.998 7.3683C58.4394 7.3683 60.419 9.34793 60.419 11.7893C60.419 14.2307 58.4402 16.2104 55.998 16.2104Z" fill="#676767"/>
<path d="M52.7959 4.57918C52.9893 4.81707 53.307 4.92161 53.5976 4.82119C53.6025 4.81954 53.6075 4.81789 53.6116 4.81625C54.0915 4.65244 54.2758 4.06555 53.9581 3.67127C52.8773 2.33121 51.222 1.47351 49.3667 1.47351C47.5113 1.47351 45.856 2.33121 44.7753 3.67127C44.4575 4.06555 44.6419 4.65244 45.1218 4.81625C45.1267 4.81789 45.1317 4.81954 45.1358 4.82119C45.4264 4.92078 45.7433 4.81707 45.9375 4.57918C46.7483 3.5832 47.983 2.94692 49.3667 2.94692C50.7504 2.94692 51.9859 3.5832 52.7959 4.57918Z" fill="#00C855"/>
<path d="M48.6328 11.7893C48.6328 8.53386 45.9922 5.8949 42.7368 5.8949C39.4813 5.8949 36.8398 8.53386 36.8398 11.7893C36.8398 14.7954 39.031 17.2739 41.9951 17.6369V19.2206C40.0188 19.5712 38.3124 21.3887 38.3124 23.5791C38.3124 26.0205 40.2921 28.0001 42.7343 28.0001C45.1765 28.0001 47.1586 26.0205 47.1586 23.5791C47.1586 21.3887 45.4539 19.5712 43.4776 19.2206V17.6369C46.4425 17.2739 48.6328 14.7954 48.6328 11.7893ZM45.6827 23.5791C45.6827 25.2072 44.3633 26.5267 42.7351 26.5267C41.107 26.5267 39.7875 25.2072 39.7875 23.5791C39.7875 21.9517 41.107 20.6314 42.7351 20.6314C44.3633 20.6314 45.6827 21.9509 45.6827 23.5791ZM42.7359 16.2104C40.2945 16.2104 38.3149 14.2307 38.3149 11.7893C38.3149 9.34793 40.2945 7.3683 42.7359 7.3683C45.1773 7.3683 47.157 9.34793 47.157 11.7893C47.157 14.2307 45.1773 16.2104 42.7359 16.2104Z" fill="#676767"/>
</svg>
